<?xml version="1.0" encoding="UTF-8"?>
<!DOCTYPE svg PUBLIC "-//W3C//DTD SVG 1.1//EN" "http://www.w3.org/Graphics/SVG/1.1/DTD/svg11.dtd">
<svg xmlns="http://www.w3.org/2000/svg" version="1.1" width="200px" height="96px" style="shape-rendering:geometricPrecision; text-rendering:geometricPrecision; image-rendering:optimizeQuality; fill-rule:evenodd; clip-rule:evenodd" xmlns:xlink="http://www.w3.org/1999/xlink">
<g><path style="opacity:1" fill="#21b371" d="M -0.5,-0.5 C -0.166667,-0.5 0.166667,-0.5 0.5,-0.5C 1.83333,1.16667 3.16667,2.83333 4.5,4.5C 4.42702,6.02694 5.09368,7.02694 6.5,7.5C 8.16667,8.5 9.5,9.83333 10.5,11.5C 10.427,13.0269 11.0937,14.0269 12.5,14.5C 14.1667,15.5 15.5,16.8333 16.5,18.5C 16.427,20.0269 17.0937,21.0269 18.5,21.5C 20.1667,22.5 21.5,23.8333 22.5,25.5C 22.427,27.0269 23.0937,28.0269 24.5,28.5C 26.1667,29.5 27.5,30.8333 28.5,32.5C 28.427,34.0269 29.0937,35.0269 30.5,35.5C 32.1667,36.5 33.5,37.8333 34.5,39.5C 34.427,41.0269 35.0937,42.0269 36.5,42.5C 38.1667,43.5 39.5,44.8333 40.5,46.5C 40.427,48.0269 41.0937,49.0269 42.5,49.5C 44.1667,50.5 45.5,51.8333 46.5,53.5C 46.427,55.0269 47.0937,56.0269 48.5,56.5C 50.1667,57.5 51.5,58.8333 52.5,60.5C 52.427,62.0269 53.0937,63.0269 54.5,63.5C 56.1667,64.5 57.5,65.8333 58.5,67.5C 58.427,69.0269 59.0937,70.0269 60.5,70.5C 62.1667,71.5 63.5,72.8333 64.5,74.5C 64.427,76.0269 65.0937,77.0269 66.5,77.5C 68.1667,78.5 69.5,79.8333 70.5,81.5C 70.427,83.0269 71.0937,84.0269 72.5,84.5C 74.1667,85.5 75.5,86.8333 76.5,88.5C 76.427,90.0269 77.0937,91.0269 78.5,91.5C 79.1667,91.5 79.5,91.8333 79.5,92.5C 53.0052,93.4979 26.3386,93.8312 -0.5,93.5C -0.5,62.1667 -0.5,30.8333 -0.5,-0.5 Z"/></g>
<g><path style="opacity:1" fill="#28a9df" d="M 80.5,-0.5 C 80.8333,-0.5 81.1667,-0.5 81.5,-0.5C 100.875,21.5395 119.875,43.8728 138.5,66.5C 140.144,68.4807 141.81,70.4807 143.5,72.5C 149.291,79.4618 155.291,86.2952 161.5,93C 134.502,93.5 107.502,93.6666 80.5,93.5C 80.5,93.1667 80.5,92.8333 80.5,92.5C 80.5,61.5 80.5,30.5 80.5,-0.5 Z"/></g>
<g><path style="opacity:1" fill="#0f9bcc" d="M 198.5,-0.5 C 198.833,-0.5 199.167,-0.5 199.5,-0.5C 199.5,31.1667 199.5,62.8333 199.5,94.5C 159.833,94.5 120.167,94.5 80.5,94.5C 80.5,94.1667 80.5,93.8333 80.5,93.5C 107.502,93.6666 134.502,93.5 161.5,93C 155.291,86.2952 149.291,79.4618 143.5,72.5C 155.97,56.0365 168.137,40.7032 180,26.5C 184.768,19.9487 189.268,13.282 193.5,6.5C 193.833,5.5 194.5,4.83333 195.5,4.5C 196.906,4.02694 197.573,3.02694 197.5,1.5C 197.833,0.833333 198.167,0.166667 198.5,-0.5 Z"/></g>
<g><path style="opacity:0.812" fill="#15495f" d="M 197.5,1.5 C 197.573,3.02694 196.906,4.02694 195.5,4.5C 195.427,2.97306 196.094,1.97306 197.5,1.5 Z"/></g>
<g><path style="opacity:0.812" fill="#195236" d="M 4.5,4.5 C 5.90632,4.97306 6.57298,5.97306 6.5,7.5C 5.09368,7.02694 4.42702,6.02694 4.5,4.5 Z"/></g>
<g><path style="opacity:0.812" fill="#195236" d="M 10.5,11.5 C 11.9063,11.9731 12.573,12.9731 12.5,14.5C 11.0937,14.0269 10.427,13.0269 10.5,11.5 Z"/></g>
<g><path style="opacity:0.812" fill="#195236" d="M 16.5,18.5 C 17.9063,18.9731 18.573,19.9731 18.5,21.5C 17.0937,21.0269 16.427,20.0269 16.5,18.5 Z"/></g>
<g><path style="opacity:0.812" fill="#195236" d="M 22.5,25.5 C 23.9063,25.9731 24.573,26.9731 24.5,28.5C 23.0937,28.0269 22.427,27.0269 22.5,25.5 Z"/></g>
<g><path style="opacity:0.812" fill="#195236" d="M 28.5,32.5 C 29.9063,32.9731 30.573,33.9731 30.5,35.5C 29.0937,35.0269 28.427,34.0269 28.5,32.5 Z"/></g>
<g><path style="opacity:0.812" fill="#195236" d="M 34.5,39.5 C 35.9063,39.9731 36.573,40.9731 36.5,42.5C 35.0937,42.0269 34.427,41.0269 34.5,39.5 Z"/></g>
<g><path style="opacity:1" fill="#0f82ab" d="M 193.5,6.5 C 189.268,13.282 184.768,19.9487 180,26.5C 168.137,40.7032 155.97,56.0365 143.5,72.5C 141.81,70.4807 140.144,68.4807 138.5,66.5C 139.117,66.6107 139.617,66.944 140,67.5C 157.699,46.9734 175.532,26.64 193.5,6.5 Z"/></g>
<g><path style="opacity:0.812" fill="#195236" d="M 40.5,46.5 C 41.9063,46.9731 42.573,47.9731 42.5,49.5C 41.0937,49.0269 40.427,48.0269 40.5,46.5 Z"/></g>
<g><path style="opacity:0.812" fill="#195236" d="M 46.5,53.5 C 47.9063,53.9731 48.573,54.9731 48.5,56.5C 47.0937,56.0269 46.427,55.0269 46.5,53.5 Z"/></g>
<g><path style="opacity:0.812" fill="#195236" d="M 52.5,60.5 C 53.9063,60.9731 54.573,61.9731 54.5,63.5C 53.0937,63.0269 52.427,62.0269 52.5,60.5 Z"/></g>
<g><path style="opacity:0.812" fill="#195236" d="M 58.5,67.5 C 59.9063,67.9731 60.573,68.9731 60.5,70.5C 59.0937,70.0269 58.427,69.0269 58.5,67.5 Z"/></g>
<g><path style="opacity:0.812" fill="#195236" d="M 64.5,74.5 C 65.9063,74.9731 66.573,75.9731 66.5,77.5C 65.0937,77.0269 64.427,76.0269 64.5,74.5 Z"/></g>
<g><path style="opacity:0.812" fill="#195236" d="M 70.5,81.5 C 71.9063,81.9731 72.573,82.9731 72.5,84.5C 71.0937,84.0269 70.427,83.0269 70.5,81.5 Z"/></g>
<g><path style="opacity:0.812" fill="#195236" d="M 76.5,88.5 C 77.9063,88.9731 78.573,89.9731 78.5,91.5C 77.0937,91.0269 76.427,90.0269 76.5,88.5 Z"/></g>
<g><path style="opacity:0.749" fill="#188754" d="M 79.5,92.5 C 79.8333,92.5 80.1667,92.5 80.5,92.5C 80.5,92.8333 80.5,93.1667 80.5,93.5C 80.5,93.8333 80.5,94.1667 80.5,94.5C 53.5,94.5 26.5,94.5 -0.5,94.5C -0.5,94.1667 -0.5,93.8333 -0.5,93.5C 26.3386,93.8312 53.0052,93.4979 79.5,92.5 Z"/></g>
</svg>
